<?xml version="1.0" encoding="utf-8"?>
<!-- Generator: Adobe Illustrator 23.1.1, SVG Export Plug-In . SVG Version: 6.00 Build 0)  -->
<svg version="1.1" id="Layer_1" xmlns="http://www.w3.org/2000/svg" xmlns:xlink="http://www.w3.org/1999/xlink" x="0px" y="0px"
	 viewBox="0 0 172.24 40" style="enable-background:new 0 0 172.24 40;" xml:space="preserve">
<style type="text/css">
	.st0{fill:#F05637;}
</style>
<g>
	<path class="st0" d="M0,0h5.69v32.38c0,1.29,0.71,1.93,2.12,1.93h1.96v5.36H7.24c-2.07,0-3.77-0.52-5.12-1.55
		C0.71,37.07,0,35.3,0,32.82V0z"/>
	<path class="st0" d="M14.53,0h5.69v5.69h-5.69V0z M14.53,11.43h5.69v28.24h-5.69V11.43z"/>
	<path class="st0" d="M23.73,11.43h6.01l6.64,19.78h0.11l6.61-19.78h6.04L38.77,39.67h-4.68L23.73,11.43z"/>
	<path class="st0" d="M56.43,27.7c0,2.27,0.65,3.99,1.96,5.17c1.21,1.2,2.81,1.8,4.79,1.8c2.3,0,4.36-0.92,6.18-2.75l4.11,3.51
		c-2.88,3.08-6.28,4.61-10.18,4.57c-1.49,0-2.94-0.22-4.35-0.65c-0.71-0.24-1.4-0.55-2.07-0.95c-0.71-0.34-1.37-0.77-1.99-1.28
		c-1.2-1.05-2.17-2.52-2.91-4.41c-0.82-1.81-1.22-4.17-1.22-7.07c0-2.79,0.35-5.12,1.06-6.97c0.71-1.89,1.61-3.37,2.72-4.46
		c1.12-1.11,2.38-1.9,3.78-2.39c1.38-0.49,2.74-0.73,4.08-0.73c3.23,0.04,5.96,1.1,8.19,3.18c2.27,2.12,3.42,5.04,3.46,8.76v4.68
		H56.43z M68.35,23.02c-0.07-2.19-0.66-3.85-1.77-4.98c-1.09-1.07-2.49-1.61-4.19-1.61c-1.71,0-3.1,0.54-4.19,1.61
		c-1.07,1.13-1.66,2.78-1.77,4.98H68.35z"/>
	<path class="st0" d="M96.49,19.89h-0.11l-5.9,19.78h-5.01l-9.03-28.24h6.01l5.41,19.78h0.11l6.42-19.78h4.11l6.42,19.78h0.11
		l5.39-19.78h6.01l-9.01,28.24h-5.03L96.49,19.89z"/>
	<path class="st0" d="M124.54,27.7c0,2.27,0.65,3.99,1.96,5.17c1.21,1.2,2.81,1.8,4.79,1.8c2.3,0,4.36-0.92,6.18-2.75l4.11,3.51
		c-2.88,3.08-6.28,4.61-10.18,4.57c-1.49,0-2.94-0.22-4.35-0.65c-0.71-0.24-1.4-0.55-2.07-0.95c-0.71-0.34-1.37-0.77-1.99-1.28
		c-1.2-1.05-2.17-2.52-2.91-4.41c-0.82-1.81-1.22-4.17-1.22-7.07c0-2.79,0.35-5.12,1.06-6.97c0.71-1.89,1.61-3.37,2.72-4.46
		c1.12-1.11,2.38-1.9,3.78-2.39c1.38-0.49,2.74-0.73,4.08-0.73c3.23,0.04,5.96,1.1,8.19,3.18c2.27,2.12,3.42,5.04,3.46,8.76v4.68
		H124.54z M136.46,23.02c-0.07-2.19-0.66-3.85-1.77-4.98c-1.09-1.07-2.49-1.61-4.19-1.61c-1.71,0-3.1,0.54-4.19,1.61
		c-1.07,1.13-1.66,2.78-1.77,4.98H136.46z"/>
	<path class="st0" d="M148.11,0h5.69v32.38c0,1.29,0.71,1.93,2.12,1.93h1.96v5.36h-2.53c-2.07,0-3.77-0.52-5.12-1.55
		c-1.41-1.05-2.12-2.82-2.12-5.31V0z"/>
	<path class="st0" d="M162.47,0h5.69v32.38c0,1.29,0.71,1.93,2.12,1.93h1.96v5.36h-2.53c-2.07,0-3.77-0.52-5.12-1.55
		c-1.41-1.05-2.12-2.82-2.12-5.31V0z"/>
</g>
</svg>
